<svg xmlns="http://www.w3.org/2000/svg" viewBox="0 0 64 64" id="star">
  <polygon fill="#abc4ff" points="57.04 6.96 49.69 27.3 62 44.05 40.72 44.31 27.98 62 22.18 41.83 2 36.02 19.69 23.28 19.95 2 36.7 14.31 57.04 6.96"></polygon>
  <polygon fill="#b6ccfe" points="48.69 15.31 43.8 28.87 52 40.03 37.81 40.2 29.32 52 25.45 38.55 12 34.68 23.8 26.19 23.97 12 35.13 20.2 48.69 15.31"></polygon>
  <polygon fill="#ccdbfd" points="40.35 23.65 37.9 30.43 42 36.02 34.91 36.1 30.66 42 28.73 35.27 22 33.34 27.9 29.09 27.98 22 33.57 26.1 40.35 23.65"></polygon>
</svg>
